<svg xmlns="http://www.w3.org/2000/svg" xmlns:xlink="http://www.w3.org/1999/xlink" id="processonSvg1000" viewBox="153.0052032470703 78.89061737060547 1017.0 658.0" width="1017.0" height="658.0"><defs id="ProcessOnDefs1001"><pattern id="ProcessOnPattern1029" patternUnits="userSpaceOnUse" width="506.0" height="460.0"><image id="ProcessOnImage1030" xlink:href="http://test.processon.com/images/designer/ui_input/richtext.png" width="260.0" height="20.0" transform="matrix(1.0,0.0,0.0,1.0,5.0,5.0)"/></pattern></defs><g id="ProcessOnG1002"><path id="ProcessOnPath1003" d="M153.0052032470703 78.89061737060547H1170.0052032470703V736.8906173706055H153.0052032470703V78.89061737060547Z" fill="none"/><g id="ProcessOnG1004"><g id="ProcessOnG1005" transform="matrix(1.0,0.0,0.0,1.0,173.0052032470703,98.89061737060547)" opacity="1.0"><path id="ProcessOnPath1006" d="M0.0 0.0L977.0 0.0L977.0 618.0L0.0 618.0Z" stroke="#8a8a8a" stroke-width="2.0" stroke-dasharray="none" opacity="1.0" fill="#ffffff"/></g><g id="ProcessOnG1007" transform="matrix(1.0,0.0,0.0,1.0,173.0052032470703,98.89061737060547)" opacity="1.0"><path id="ProcessOnPath1008" d="M0.0 0.0L977.0 0.0L977.0 75.0L0.0 75.0Z" stroke="#8a8a8a" stroke-width="2.0" stroke-dasharray="none" opacity="1.0" fill="#8a8a8a"/></g><g id="ProcessOnG1009" transform="matrix(1.0,0.0,0.0,1.0,173.0052032470703,641.8906173706055)" opacity="1.0"><path id="ProcessOnPath1010" d="M0.0 0.0L977.0 0.0L977.0 75.0L0.0 75.0Z" stroke="#8a8a8a" stroke-width="2.0" stroke-dasharray="none" opacity="1.0" fill="#8a8a8a"/></g><g id="ProcessOnG1011" transform="matrix(1.0,0.0,0.0,1.0,931.0052032470703,148.89061737060547)" opacity="1.0"><path id="ProcessOnPath1012" d="M0.0 4.0Q0.0 0.0 4.0 0.0L77.0 0.0Q81.0 0.0 81.0 4.0L81.0 17.0Q81.0 21.0 77.0 21.0L4.0 21.0Q0.0 21.0 0.0 17.0Z" stroke="#323232" stroke-width="0.0" stroke-dasharray="none" opacity="1.0" fill="#cc0000"/><g id="ProcessOnG1013" transform="matrix(1.0,0.0,0.0,1.0,0.0,1.75)"><text id="ProcessOnText1014" fill="#ffffff" font-weight="bold" font-style="normal" text-decoration="blink" font-family="微软雅黑" text-anchor="middle" font-size="14" x="40.5" y="14.350000000000001">HIDE TIME</text></g></g><g id="ProcessOnG1015" transform="matrix(1.0,0.0,0.0,1.0,879.0052032470703,109.89061737060547)" opacity="1.0"><path id="ProcessOnPath1016" d="M0.0 4.0Q0.0 0.0 4.0 0.0L76.0 0.0Q80.0 0.0 80.0 4.0L80.0 25.0Q80.0 29.0 76.0 29.0L4.0 29.0Q0.0 29.0 0.0 25.0Z" stroke="#323232" stroke-width="0.0" stroke-dasharray="none" opacity="1.0" fill="#0066cc"/><g id="ProcessOnG1017" transform="matrix(1.0,0.0,0.0,1.0,0.0,5.75)"><text id="ProcessOnText1018" fill="#ffffff" font-weight="bold" font-style="normal" text-decoration="blink" font-family="微软雅黑" text-anchor="middle" font-size="14" x="40.0" y="14.350000000000001">HELP</text></g></g><g id="ProcessOnG1019" transform="matrix(1.0,0.0,0.0,1.0,189.0052032470703,132.89061737060547)" opacity="1.0"><path id="ProcessOnPath1020" d="M0.0 4.0Q0.0 0.0 4.0 0.0L69.0 0.0Q73.0 0.0 73.0 4.0L73.0 33.0Q73.0 37.0 69.0 37.0L4.0 37.0Q0.0 37.0 0.0 33.0Z" stroke="#323232" stroke-width="0.0" stroke-dasharray="none" opacity="1.0" fill="#cc0000"/><g id="ProcessOnG1021" transform="matrix(1.0,0.0,0.0,1.0,0.0,1.0)"><text id="ProcessOnText1022" fill="#ffffff" font-weight="bold" font-style="normal" text-decoration="blink" font-family="微软雅黑" text-anchor="middle" font-size="14" x="36.5" y="14.350000000000001">PAUSE</text><text id="ProcessOnText1023" fill="#ffffff" font-weight="bold" font-style="normal" text-decoration="blink" font-family="微软雅黑" text-anchor="middle" font-size="14" x="36.5" y="31.85">TEST</text></g></g><g id="ProcessOnG1024" transform="matrix(1.0,0.0,0.0,1.0,641.0052032470703,177.89061737060547)" opacity="1.0"><path id="ProcessOnPath1025" d="M0.5 0.5L505.5 0.5L505.5 459.5L0.5 459.5Z" stroke="#8a8a8a" stroke-width="1.0" stroke-dasharray="none" opacity="1.0" fill="#ffffff"/><path id="ProcessOnPath1026" d="M0.5 25.5L506.0 25.5" stroke="#8a8a8a" stroke-width="1.0" stroke-dasharray="none" opacity="1.0" fill="none"/><path id="ProcessOnPath1027" d="M1.0 1.0L505.0 1.0L505.0 459.0L1.0 459.0Z" stroke="#8a8a8a" stroke-width="0.0" stroke-dasharray="none" opacity="1.0" fill="none"/><path id="ProcessOnPath1028" d="M0.0 0.0L506.0 0.0L506.0 460.0L0.0 460.0Z" stroke="#8a8a8a" stroke-width="0.0" stroke-dasharray="none" opacity="1.0" fill="url(#ProcessOnPattern1029)"/></g><g id="ProcessOnG1031" transform="matrix(1.0,0.0,0.0,1.0,1127.0052032470703,203.89061737060547)" opacity="1.0"><path id="ProcessOnPath1032" d="M0.0 0.0L20.0 0.0L20.0 434.0L0.0 434.0Z" stroke="#b8b8b8" stroke-width="0.0" stroke-dasharray="none" opacity="1.0" fill="#ffffff"/><path id="ProcessOnPath1033" d="M0.0 0.0L20.0 0.0L20.0 20.0L0.0 20.0Z" stroke="#b8b8b8" stroke-width="0.0" stroke-dasharray="none" opacity="1.0" fill="#e5e5e5"/><path id="ProcessOnPath1034" d="M0.0 19.5L20.0 19.5" stroke="#b8b8b8" stroke-width="1.0" stroke-dasharray="none" opacity="1.0" fill="none"/><path id="ProcessOnPath1035" d="M10.0 7.0L16.0 13.0L4.0 13.0Z" stroke="#b8b8b8" stroke-width="0.0" stroke-dasharray="none" opacity="1.0" fill="#aaaaaa"/><path id="ProcessOnPath1036" d="M0.0 414.0L20.0 414.0L20.0 434.0L0.0 434.0Z" stroke="#b8b8b8" stroke-width="0.0" stroke-dasharray="none" opacity="1.0" fill="#e5e5e5"/><path id="ProcessOnPath1037" d="M0.0 414.5L20.0 414.5" stroke="#b8b8b8" stroke-width="1.0" stroke-dasharray="none" opacity="1.0" fill="none"/><path id="ProcessOnPath1038" d="M10.0 427.0L16.0 421.0L4.0 421.0Z" stroke="#b8b8b8" stroke-width="0.0" stroke-dasharray="none" opacity="1.0" fill="#aaaaaa"/><path id="ProcessOnPath1039" d="M0.0 108.5L20.0 108.5L20.0 238.70000000000002L0.0 238.70000000000002Z" stroke="#b8b8b8" stroke-width="0.0" stroke-dasharray="none" opacity="1.0" fill="#e5e5e5"/><path id="ProcessOnPath1040" d="M0.5 0.5L19.5 0.5L19.5 433.5L0.5 433.5Z" stroke="#b8b8b8" stroke-width="1.0" stroke-dasharray="none" opacity="1.0" fill="none"/></g><g id="ProcessOnG1041" transform="matrix(1.0,0.0,0.0,1.0,968.0052032470703,109.89061737060547)" opacity="1.0"><path id="ProcessOnPath1042" d="M0.0 4.0Q0.0 0.0 4.0 0.0L76.0 0.0Q80.0 0.0 80.0 4.0L80.0 25.0Q80.0 29.0 76.0 29.0L4.0 29.0Q0.0 29.0 0.0 25.0Z" stroke="#323232" stroke-width="0.0" stroke-dasharray="none" opacity="1.0" fill="#0066cc"/><g id="ProcessOnG1043" transform="matrix(1.0,0.0,0.0,1.0,0.0,5.75)"><text id="ProcessOnText1044" fill="#ffffff" font-weight="bold" font-style="normal" text-decoration="blink" font-family="微软雅黑" text-anchor="middle" font-size="14" x="40.0" y="14.350000000000001">BACK</text></g></g><g id="ProcessOnG1045" transform="matrix(1.0,0.0,0.0,1.0,1057.0052032470703,109.89061737060547)" opacity="1.0"><path id="ProcessOnPath1046" d="M0.0 4.0Q0.0 0.0 4.0 0.0L76.0 0.0Q80.0 0.0 80.0 4.0L80.0 25.0Q80.0 29.0 76.0 29.0L4.0 29.0Q0.0 29.0 0.0 25.0Z" stroke="#323232" stroke-width="0.0" stroke-dasharray="none" opacity="1.0" fill="#0066cc"/><g id="ProcessOnG1047" transform="matrix(1.0,0.0,0.0,1.0,0.0,5.75)"><text id="ProcessOnText1048" fill="#ffffff" font-weight="bold" font-style="normal" text-decoration="blink" font-family="微软雅黑" text-anchor="middle" font-size="14" x="40.0" y="14.350000000000001">CONTINUE</text></g></g><g id="ProcessOnG1049" transform="matrix(1.0,0.0,0.0,1.0,1031.0052032470703,146.89061737060547)" opacity="1.0"><path id="ProcessOnPath1050" d="M0.0 0.0L75.0 0.0L75.0 25.0L0.0 25.0Z" stroke="#323232" stroke-width="0.0" stroke-dasharray="none" opacity="1.0" fill="none"/><g id="ProcessOnG1051" transform="matrix(1.0,0.0,0.0,1.0,0.0,4.375)"><text id="ProcessOnText1052" fill="#ffffff" font-weight="bold" font-style="normal" text-decoration="blink" font-family="微软雅黑" text-anchor="middle" font-size="13" x="37.5" y="13.325">00：29：30</text></g></g><g id="ProcessOnG1053" transform="matrix(1.0,0.0,0.0,1.0,272.0052032470703,132.89061737060547)" opacity="1.0"><path id="ProcessOnPath1054" d="M0.0 4.0Q0.0 0.0 4.0 0.0L69.0 0.0Q73.0 0.0 73.0 4.0L73.0 33.0Q73.0 37.0 69.0 37.0L4.0 37.0Q0.0 37.0 0.0 33.0Z" stroke="#323232" stroke-width="0.0" stroke-dasharray="none" opacity="1.0" fill="#cc0000"/><g id="ProcessOnG1055" transform="matrix(1.0,0.0,0.0,1.0,0.0,1.0)"><text id="ProcessOnText1056" fill="#ffffff" font-weight="bold" font-style="normal" text-decoration="blink" font-family="微软雅黑" text-anchor="middle" font-size="14" x="36.5" y="14.350000000000001">SECTION</text><text id="ProcessOnText1057" fill="#ffffff" font-weight="bold" font-style="normal" text-decoration="blink" font-family="微软雅黑" text-anchor="middle" font-size="14" x="36.5" y="31.85">EXIT</text></g></g><g id="ProcessOnG1058" transform="matrix(1.0,0.0,0.0,1.0,546.0052032470703,126.89061737060547)" opacity="1.0"><path id="ProcessOnPath1059" d="M0.0 0.0L187.0 0.0L187.0 51.0L0.0 51.0Z" stroke="#323232" stroke-width="0.0" stroke-dasharray="none" opacity="1.0" fill="none"/><g id="ProcessOnG1060" transform="matrix(1.0,0.0,0.0,1.0,0.0,17.375)"><text id="ProcessOnText1061" fill="#ffffff" font-weight="normal" font-style="normal" text-decoration="blink" font-family="微软雅黑" text-anchor="middle" font-size="13" x="93.5" y="13.325">Question 1 of 1</text></g></g><g id="ProcessOnG1062" transform="matrix(1.0,0.0,0.0,1.0,178.5052032470703,177.89061737060547)" opacity="1.0"><path id="ProcessOnPath1063" d="M0.0 0.0L458.5 0.0L458.5 460.0L0.0 460.0Z" stroke="#8a8a8a" stroke-width="2.0" stroke-dasharray="none" opacity="1.0" fill="#ebebeb"/></g><g id="ProcessOnG1064" transform="matrix(1.0,0.0,0.0,1.0,190.0052032470703,195.77951049804688)" opacity="1.0"><path id="ProcessOnPath1065" d="M0.0 0.0L435.5 0.0L435.5 78.0L0.0 78.0Z" stroke="#8a8a8a" stroke-width="2.0" stroke-dasharray="none" opacity="1.0" fill="#ebebeb"/></g><g id="ProcessOnG1066" transform="matrix(1.0,0.0,0.0,1.0,201.0052032470703,203.89061737060547)" opacity="1.0"><path id="ProcessOnPath1067" d="M0.0 0.0L86.0 0.0L86.0 25.0L0.0 25.0Z" stroke="#323232" stroke-width="0.0" stroke-dasharray="none" opacity="1.0" fill="none"/><g id="ProcessOnG1068" transform="matrix(1.0,0.0,0.0,1.0,0.0,4.375)"><text id="ProcessOnText1069" fill="#000000" font-weight="bold" font-style="normal" text-decoration="blink" font-family="微软雅黑" text-anchor="middle" font-size="13" x="43.0" y="13.325">DIRECTIONS:</text></g></g><g id="ProcessOnG1070" transform="matrix(1.0,0.0,0.0,1.0,275.0052032470703,183.89061737060547)" opacity="1.0"><path id="ProcessOnPath1071" d="M0.0 0.0L359.0 0.0L359.0 65.0L0.0 65.0Z" stroke="#323232" stroke-width="0.0" stroke-dasharray="none" opacity="1.0" fill="none"/><g id="ProcessOnG1072" transform="matrix(1.0,0.0,0.0,1.0,0.0,24.375)"><text id="ProcessOnText1073" fill="#000000" font-weight="normal" font-style="normal" text-decoration="blink" font-family="微软雅黑" text-anchor="middle" font-size="13" x="179.5" y="13.325">Read the questions below. You have 30 minutes to </text></g></g><g id="ProcessOnG1074" transform="matrix(1.0,0.0,0.0,1.0,178.5052032470703,199.83506393432617)" opacity="1.0"><path id="ProcessOnPath1075" d="M0.0 0.0L444.5 0.0L444.5 69.8888931274414L0.0 69.8888931274414Z" stroke="#323232" stroke-width="0.0" stroke-dasharray="none" opacity="1.0" fill="none"/><g id="ProcessOnG1076" transform="matrix(1.0,0.0,0.0,1.0,0.0,26.819446563720703)"><text id="ProcessOnText1077" fill="#000000" font-weight="normal" font-style="normal" text-decoration="blink" font-family="微软雅黑" text-anchor="middle" font-size="13" x="222.25" y="13.325">plan, write and revise your essay. Typically, an effective response </text></g></g><g id="ProcessOnG1078" transform="matrix(1.0,0.0,0.0,1.0,178.5052032470703,219.83506393432617)" opacity="1.0"><path id="ProcessOnPath1079" d="M0.0 0.0L204.5 0.0L204.5 71.9444465637207L0.0 71.9444465637207Z" stroke="#323232" stroke-width="0.0" stroke-dasharray="none" opacity="1.0" fill="none"/><g id="ProcessOnG1080" transform="matrix(1.0,0.0,0.0,1.0,0.0,27.84722328186035)"><text id="ProcessOnText1081" fill="#000000" font-weight="normal" font-style="normal" text-decoration="blink" font-family="微软雅黑" text-anchor="middle" font-size="13" x="102.25" y="13.325">will be at least 300 words.</text></g></g><g id="ProcessOnG1082" transform="matrix(1.0,0.0,0.0,1.0,184.0052032470703,282.8350639343262)" opacity="1.0"><path id="ProcessOnPath1083" d="M0.0 0.0L107.0 0.0L107.0 44.9444465637207L0.0 44.9444465637207Z" stroke="#323232" stroke-width="0.0" stroke-dasharray="none" opacity="1.0" fill="none"/><g id="ProcessOnG1084" transform="matrix(1.0,0.0,0.0,1.0,0.0,14.347223281860352)"><text id="ProcessOnText1085" fill="#000000" font-weight="bold" font-style="normal" text-decoration="blink" font-family="微软雅黑" text-anchor="middle" font-size="13" x="53.5" y="13.325">QUESTION:</text></g></g><g id="ProcessOnG1086" transform="matrix(1.0,0.0,0.0,1.0,178.5052032470703,307.8350639343262)" opacity="1.0"><path id="ProcessOnPath1087" d="M0.0 0.0L392.5 0.0L392.5 59.9444465637207L0.0 59.9444465637207Z" stroke="#323232" stroke-width="0.0" stroke-dasharray="none" opacity="1.0" fill="none"/><g id="ProcessOnG1088" transform="matrix(1.0,0.0,0.0,1.0,0.0,21.84722328186035)"><text id="ProcessOnText1089" fill="#000000" font-weight="normal" font-style="normal" text-decoration="blink" font-family="微软雅黑" text-anchor="middle" font-size="13" x="196.25" y="13.325">Do you agree or disagree with the following statement?</text></g></g><g id="ProcessOnG1090" transform="matrix(1.0,0.0,0.0,1.0,178.5052032470703,352.8350639343262)" opacity="1.0"><path id="ProcessOnPath1091" d="M0.0 0.0L451.5 0.0L451.5 41.9444465637207L0.0 41.9444465637207Z" stroke="#323232" stroke-width="0.0" stroke-dasharray="none" opacity="1.0" fill="none"/><g id="ProcessOnG1092" transform="matrix(1.0,0.0,0.0,1.0,0.0,12.847223281860352)"><text id="ProcessOnText1093" fill="#000000" font-weight="bold" font-style="normal" text-decoration="blink" font-family="微软雅黑" text-anchor="middle" font-size="13" x="225.75" y="13.325">Always telling the truth is the most important consideration in</text></g></g><g id="ProcessOnG1094" transform="matrix(1.0,0.0,0.0,1.0,178.5052032470703,371.8350639343262)" opacity="1.0"><path id="ProcessOnPath1095" d="M0.0 0.0L259.5 0.0L259.5 42.9444465637207L0.0 42.9444465637207Z" stroke="#323232" stroke-width="0.0" stroke-dasharray="none" opacity="1.0" fill="none"/><g id="ProcessOnG1096" transform="matrix(1.0,0.0,0.0,1.0,0.0,13.347223281860352)"><text id="ProcessOnText1097" fill="#000000" font-weight="bold" font-style="normal" text-decoration="blink" font-family="微软雅黑" text-anchor="middle" font-size="13" x="129.75" y="13.325">any relationship between people.</text></g></g><g id="ProcessOnG1098" transform="matrix(1.0,0.0,0.0,1.0,178.5052032470703,401.8350639343262)" opacity="1.0"><path id="ProcessOnPath1099" d="M0.0 0.0L408.5 0.0L408.5 59.9444465637207L0.0 59.9444465637207Z" stroke="#323232" stroke-width="0.0" stroke-dasharray="none" opacity="1.0" fill="none"/><g id="ProcessOnG1100" transform="matrix(1.0,0.0,0.0,1.0,0.0,21.84722328186035)"><text id="ProcessOnText1101" fill="#000000" font-weight="normal" font-style="normal" text-decoration="blink" font-family="微软雅黑" text-anchor="middle" font-size="13" x="204.25" y="13.325">Use specific reasons and examples to support your answer.</text></g></g></g></g></svg>